<svg xmlns="http://www.w3.org/2000/svg" width="683" height="248" viewBox="0 0 683 248" font-family="ui-monospace,SFMono-Regular,Menlo,Consolas,monospace" role="img" aria-label="Brand assets">
<style>
  .bg { fill: #ffffff; stroke: #d1d9e0; }
  .name-dir { fill: #1a7f37; font-weight: 600; }
  .name-file { fill: #1f2328; }
  .comment { fill: #5c6f5c; }
  .folder { fill: #4ac26b; }
  .file { fill: #eaeef2; stroke: #afb8c1; stroke-width: 1; }
  .file-fold { fill: none; stroke: #afb8c1; stroke-width: 1; }
  .guide { stroke: #93c4a0; stroke-width: 1; }
  .dot { fill: #93c4a0; }
  @media (prefers-color-scheme: dark) {
    .bg { fill: #0d1117; stroke: #30363d; }
    .name-dir { fill: #57d472; }
    .name-file { fill: #e6edf3; }
    .comment { fill: #8fa891; }
    .folder { fill: #3fb950; }
    .file { fill: #21262d; stroke: #484f58; }
    .file-fold { stroke: #484f58; }
    .guide { stroke: #4f6b57; }
    .dot { fill: #4f6b57; }
  }
</style>

<line class="guide" x1="27.0" y1="14.0" x2="27.0" y2="36.0"/>
<line class="guide" x1="27.0" y1="25.0" x2="38.0" y2="25.0"/>
<line class="guide" x1="27.0" y1="36" x2="27.0" y2="58"/>
<line class="guide" x1="49.0" y1="36.0" x2="49.0" y2="58.0"/>
<line class="guide" x1="49.0" y1="47.0" x2="60.0" y2="47.0"/>
<line class="guide" x1="27.0" y1="58" x2="27.0" y2="80"/>
<line class="guide" x1="49.0" y1="58.0" x2="49.0" y2="80.0"/>
<line class="guide" x1="49.0" y1="69.0" x2="60.0" y2="69.0"/>
<line class="guide" x1="27.0" y1="80" x2="27.0" y2="102"/>
<line class="guide" x1="49.0" y1="80.0" x2="49.0" y2="102.0"/>
<line class="guide" x1="49.0" y1="91.0" x2="60.0" y2="91.0"/>
<line class="guide" x1="27.0" y1="102" x2="27.0" y2="124"/>
<path class="guide" fill="none" d="M49.0 102 V107.0 Q49.0 113.0 55.0 113.0 H60.0"/>
<line class="guide" x1="27.0" y1="124.0" x2="27.0" y2="146.0"/>
<line class="guide" x1="27.0" y1="135.0" x2="38.0" y2="135.0"/>
<path class="guide" fill="none" d="M27.0 146 V151.0 Q27.0 157.0 33.0 157.0 H38.0"/>
<line class="guide" x1="49.0" y1="168.0" x2="49.0" y2="190.0"/>
<line class="guide" x1="49.0" y1="179.0" x2="60.0" y2="179.0"/>
<line class="guide" x1="49.0" y1="190.0" x2="49.0" y2="212.0"/>
<line class="guide" x1="49.0" y1="201.0" x2="60.0" y2="201.0"/>
<path class="guide" fill="none" d="M49.0 212 V217.0 Q49.0 223.0 55.0 223.0 H60.0"/>
<circle class="dot" cx="27.0" cy="14" r="2"/>
<path class="folder" d="M39 21h4.5l1.4 1.6h8.1v7.8h-14z"/>
<path class="folder" d="M61 43h4.5l1.4 1.6h8.1v7.8h-14z"/>
<path class="folder" d="M61 65h4.5l1.4 1.6h8.1v7.8h-14z"/>
<path class="folder" d="M61 87h4.5l1.4 1.6h8.1v7.8h-14z"/>
<path class="folder" d="M61 109h4.5l1.4 1.6h8.1v7.8h-14z"/>
<path class="folder" d="M39 131h4.5l1.4 1.6h8.1v7.8h-14z"/>
<path class="folder" d="M39 153h4.5l1.4 1.6h8.1v7.8h-14z"/>
<path class="folder" d="M61 175h4.5l1.4 1.6h8.1v7.8h-14z"/>
<path class="folder" d="M61 197h4.5l1.4 1.6h8.1v7.8h-14z"/>
<path class="folder" d="M61 219h4.5l1.4 1.6h8.1v7.8h-14z"/>
<text y="25.0" dominant-baseline="central" font-size="13"><tspan class="name-dir" x="62.0">brand-identity</tspan><tspan class="comment" x="215.2">Core visual brand elements</tspan></text>
<text y="47.0" dominant-baseline="central" font-size="13"><tspan class="name-dir" x="84.0">banners</tspan><tspan class="comment" x="215.2">Social media headers and banners</tspan></text>
<text y="69.0" dominant-baseline="central" font-size="13"><tspan class="name-dir" x="84.0">guidelines</tspan><tspan class="comment" x="215.2">Style guides, color codes, and usage manuals</tspan></text>
<text y="91.0" dominant-baseline="central" font-size="13"><tspan class="name-dir" x="84.0">logos</tspan><tspan class="comment" x="215.2">Official logos and icons (SVG, PNG)</tspan></text>
<text y="113.0" dominant-baseline="central" font-size="13"><tspan class="name-dir" x="84.0">typography</tspan><tspan class="comment" x="215.2">Official brand fonts</tspan></text>
<text y="135.0" dominant-baseline="central" font-size="13"><tspan class="name-dir" x="62.0">design-resources</tspan><tspan class="comment" x="215.2">UI kits, components, and design source files (Figma, etc.)</tspan></text>
<text y="157.0" dominant-baseline="central" font-size="13"><tspan class="name-dir" x="62.0">media-center</tspan><tspan class="comment" x="215.2">Public relations and media archive</tspan></text>
<text y="179.0" dominant-baseline="central" font-size="13"><tspan class="name-dir" x="84.0">clippings</tspan><tspan class="comment" x="215.2">External news coverage, video clips, and press mentions</tspan></text>
<text y="201.0" dominant-baseline="central" font-size="13"><tspan class="name-dir" x="84.0">press-kit</tspan><tspan class="comment" x="215.2">Corporate backgrounder, management bios, and fact sheets</tspan></text>
<text y="223.0" dominant-baseline="central" font-size="13"><tspan class="name-dir" x="84.0">press-releases</tspan><tspan class="comment" x="215.2">Historical archive of official press releases</tspan></text>
</svg>